<svg width="19" height="22" viewBox="0 0 19 22" fill="none" xmlns="http://www.w3.org/2000/svg">
<path d="M8.14286 0C6.65 0 5.42857 1.2375 5.42857 2.75H2.71429C1.22143 2.75 0 3.9875 0 5.5H19C19 3.9875 17.7786 2.75 16.2857 2.75H13.5714C13.5714 1.2375 12.35 0 10.8571 0H8.14286ZM2.71429 8.25V21.4775C2.71429 21.78 2.93143 22 3.23 22H15.7971C16.0957 22 16.3129 21.78 16.3129 21.4775V8.25H13.5986V17.875C13.5986 18.645 13.0014 19.25 12.2414 19.25C11.4814 19.25 10.8843 18.645 10.8843 17.875V8.25H8.17V17.875C8.17 18.645 7.57286 19.25 6.81286 19.25C6.05286 19.25 5.45571 18.645 5.45571 17.875V8.25H2.74143H2.71429Z" fill="#FF1111" fill-opacity="0.8"/>
</svg>
