<svg width="32" height="32" viewBox="0 0 32 32" fill="none" xmlns="http://www.w3.org/2000/svg">
<path d="M0 4.57143C0 2.0467 2.0467 0 4.57143 0H23.7227C24.9351 0 26.0978 0.481623 26.9552 1.33895L30.661 5.04482C31.5184 5.90213 32 7.06489 32 8.2773V27.4286C32 29.9534 29.9534 32 27.4286 32H4.57143C2.0467 32 0 29.9534 0 27.4286V4.57143ZM4.57143 2.28571C3.30907 2.28571 2.28571 3.30907 2.28571 4.57143V27.4286C2.28571 28.691 3.30907 29.7143 4.57143 29.7143V19.4286C4.57143 17.5351 6.10645 16 8 16H24C25.8935 16 27.4286 17.5351 27.4286 19.4286V29.7143C28.691 29.7143 29.7143 28.691 29.7143 27.4286V8.2773C29.7143 7.67109 29.4734 7.08971 29.0448 6.66105L25.339 2.95518C24.9104 2.52654 24.3289 2.28571 23.7227 2.28571H22.8571V8C22.8571 9.89355 21.3221 11.4286 19.4286 11.4286H10.2857C8.39216 11.4286 6.85714 9.89355 6.85714 8V2.28571H4.57143ZM9.14286 2.28571V8C9.14286 8.63118 9.65454 9.14286 10.2857 9.14286H19.4286C20.0597 9.14286 20.5714 8.63118 20.5714 8V2.28571H9.14286ZM25.1429 29.7143V19.4286C25.1429 18.7975 24.6311 18.2857 24 18.2857H8C7.36882 18.2857 6.85714 18.7975 6.85714 19.4286V29.7143H25.1429Z" fill="#1AFFE6" fill-opacity="0.5"/>
</svg>
